<?xml version="1.0" encoding="UTF-8" standalone="no"?>
<!DOCTYPE svg PUBLIC "-//W3C//DTD SVG 1.1//EN" "http://www.w3.org/Graphics/SVG/1.1/DTD/svg11.dtd">
<svg xmlns="http://www.w3.org/2000/svg" version="1.1" viewBox="0 0 323 303">
<path fill="#afcaec" d="M 141.56,0.00 Q 157.19,0.00 172.81,0.00 Q 193.49,1.77 211.69,8.56 Q 233.21,16.60 253.18,30.58 Q 267.70,40.75 280.31,54.94 Q 311.23,89.73 320.94,134.81 Q 321.99,139.69 323.00,151.06 Q 323.00,163.06 323.00,175.06 Q 320.73,208.22 303.19,234.44 Q 300.81,237.99 300.13,240.27 A 1.51,1.30 45.7 0 0 300.19,241.22 Q 306.88,258.20 313.56,275.19 Q 314.50,277.57 315.40,278.90 A 1.28,0.59 48.8 0 1 315.67,279.81 Q 315.53,280.32 314.69,279.81 Q 314.08,279.44 313.20,279.58 Q 312.29,279.72 311.78,279.64 Q 291.29,276.49 270.98,272.35 A 1.10,1.06 -57.2 0 0 270.10,272.56 Q 242.80,293.36 208.57,302.32 Q 208.13,302.44 208.38,302.06 Q 218.93,286.03 219.09,266.83 Q 219.14,260.89 218.91,258.15 Q 218.55,253.89 217.12,249.60 Q 216.57,247.97 217.84,246.80 Q 222.56,242.45 223.00,235.74 A 0.75,0.75 84.5 0 1 223.55,235.07 Q 249.49,227.72 267.89,209.02 Q 275.61,201.17 280.75,193.71 Q 289.06,181.62 292.18,167.06 Q 292.55,165.33 294.29,165.04 Q 302.81,163.58 305.68,155.72 Q 310.32,142.99 300.37,134.39 Q 293.78,128.69 285.99,132.67 Q 280.08,135.69 278.72,141.06 Q 278.09,143.56 275.57,143.02 Q 273.60,142.59 272.21,143.47 Q 271.08,144.19 270.45,146.04 Q 269.43,148.99 270.16,151.91 Q 270.77,154.35 272.39,157.15 Q 275.40,162.36 281.88,164.10 A 1.17,1.17 12.5 0 1 282.73,165.43 Q 280.48,178.20 272.68,189.15 Q 253.13,216.60 220.13,226.44 A 1.33,1.31 -32.0 0 1 218.89,226.16 Q 215.71,223.34 212.75,223.00 Q 207.18,222.37 202.94,223.45 A 3.20,3.18 56.6 0 1 200.21,222.88 Q 184.72,210.88 167.82,208.02 A 0.67,0.59 4.7 0 1 167.26,207.44 L 167.03,198.07 A 0.58,0.54 -3.4 0 1 167.56,197.52 Q 189.34,195.70 210.06,185.56 Q 239.88,170.97 253.49,139.15 Q 254.23,137.42 256.10,137.24 Q 265.94,136.29 269.07,127.87 Q 270.28,124.63 270.23,117.98 Q 270.19,112.97 270.08,107.96 Q 269.99,104.16 268.94,101.73 Q 267.64,98.73 265.51,96.23 Q 264.33,94.85 261.86,93.61 Q 259.80,92.58 257.90,91.28 A 1.27,1.14 -80.7 0 1 257.40,90.50 Q 256.11,84.42 253.38,78.84 Q 248.18,68.16 240.16,59.73 Q 233.71,52.94 224.53,47.35 Q 201.99,33.64 174.85,32.71 Q 174.76,32.70 173.79,32.71 Q 170.67,32.73 169.56,30.19 Q 167.88,26.30 164.48,25.31 Q 162.37,24.70 158.01,24.69 Q 150.37,24.68 147.13,32.22 A 0.81,0.79 -79.3 0 1 146.43,32.71 Q 130.01,33.41 115.06,37.81 Q 94.81,43.79 79.62,57.98 Q 71.94,65.16 67.10,73.46 Q 61.20,83.58 58.26,95.80 A 1.56,1.56 86.4 0 1 57.28,96.91 Q 48.65,100.00 47.26,108.12 Q 46.96,109.90 46.83,115.89 Q 46.76,119.02 46.81,123.69 Q 46.89,130.73 50.68,135.72 Q 52.86,138.59 56.64,140.17 Q 60.23,141.67 64.02,142.15 A 1.27,1.26 -6.1 0 1 65.05,142.98 Q 66.53,147.03 68.33,150.58 Q 70.02,153.93 72.73,157.53 Q 97.46,190.49 140.00,196.25 Q 148.29,197.37 150.94,197.54 A 0.66,0.64 -4.0 0 1 151.54,198.05 Q 152.30,202.04 151.93,206.98 A 1.17,1.17 87.5 0 1 150.95,208.05 Q 134.56,210.69 121.31,221.06 Q 118.70,223.11 117.68,223.76 A 1.25,1.03 31.8 0 1 116.77,223.88 Q 113.19,223.01 109.50,222.75 Q 100.00,222.07 96.87,229.72 Q 95.81,232.30 95.77,235.40 Q 95.72,238.39 96.50,241.22 A 1.30,1.27 58.3 0 1 96.23,242.42 Q 89.43,250.15 82.97,257.38 Q 78.08,262.84 74.41,268.34 Q 70.59,274.04 66.77,280.01 A 1.28,1.27 -56.9 0 1 64.99,280.39 Q 12.18,245.18 1.76,182.00 Q 0.87,176.59 0.00,171.19 Q 0.00,158.81 0.00,146.44 Q 3.21,96.33 33.52,57.86 Q 39.84,49.85 46.94,43.05 Q 68.30,22.62 96.69,10.94 Q 118.96,1.77 141.56,0.00 Z"/>
<path fill="#b1abbc" fill-opacity="0.996" d="M 144.75,96.54 Q 140.92,97.34 137.00,96.99 Q 126.93,96.07 118.00,100.54 L 117.25,100.46 Q 120.99,98.08 124.50,97.25 Q 134.18,94.97 144.75,96.54 Z"/>
<path fill="#270360" d="M 144.75,96.54 Q 149.97,97.01 158.50,97.00 Q 175.00,96.99 191.50,96.96 Q 190.70,97.23 191.77,97.39 Q 207.29,99.72 214.58,111.44 Q 220.02,120.19 219.40,130.23 Q 218.75,140.71 211.06,149.06 Q 210.50,149.67 211.25,149.79 Q 208.20,152.74 204.50,154.79 Q 198.69,157.44 192.41,158.50 Q 191.83,158.60 192.34,158.77 Q 192.51,158.83 192.75,158.79 Q 170.25,159.09 147.74,159.04 Q 129.71,159.00 127.78,158.71 Q 110.48,156.12 102.79,138.25 Q 103.23,137.24 102.86,136.35 Q 102.35,135.15 102.33,135.06 Q 100.09,125.53 103.63,116.42 Q 107.79,105.71 118.00,100.54 Q 126.93,96.07 137.00,96.99 Q 140.92,97.34 144.75,96.54 ZM 142.85,128.66 A 11.69 11.69 0.0 0 0 131.16,116.97 A 11.69 11.69 0.0 0 0 119.47,128.66 A 11.69 11.69 0.0 0 0 131.16,140.35 A 11.69 11.69 0.0 0 0 142.85,128.66 ZM 201.45,128.93 A 11.71 11.71 0.0 0 0 189.74,117.22 A 11.71 11.71 0.0 0 0 178.03,128.93 A 11.71 11.71 0.0 0 0 189.74,140.64 A 11.71 11.71 0.0 0 0 201.45,128.93 ZM 154.20,140.02 Q 152.84,139.93 151.08,140.07 A 0.50,0.49 84.0 0 0 150.63,140.63 Q 150.99,143.31 152.20,145.36 Q 153.42,147.41 155.71,148.67 Q 160.74,151.43 165.94,148.19 Q 169.84,145.75 170.16,140.80 A 0.47,0.45 2.2 0 0 169.69,140.31 Q 163.31,140.25 156.93,140.20 Q 156.87,140.20 154.20,140.02 Z"/>
<path fill="#655f85" fill-opacity="0.980" d="M 191.50,96.96 Q 193.69,96.94 195.80,97.50 Q 206.82,100.40 213.25,108.51 Q 219.53,116.43 220.11,126.75 Q 220.83,139.47 211.25,149.79 Q 210.50,149.67 211.06,149.06 Q 218.75,140.71 219.40,130.23 Q 220.02,120.19 214.58,111.44 Q 207.29,99.72 191.77,97.39 Q 190.70,97.23 191.50,96.96 Z"/>
<path fill="#655f85" fill-opacity="0.980" d="M 117.25,100.46 L 118.00,100.54 Q 107.79,105.71 103.63,116.42 Q 100.09,125.53 102.33,135.06 Q 102.35,135.15 102.86,136.35 Q 103.23,137.24 102.79,138.25 Q 99.18,129.05 102.06,119.06 Q 105.76,106.25 117.25,100.46 Z"/>
<path fill="#80749c" fill-opacity="0.984" d="M 104.50,170.79 Q 107.67,172.43 111.09,173.33 Q 116.28,174.70 117.39,174.70 Q 121.47,174.71 122.37,168.66 Q 122.78,165.97 120.44,164.56 Q 118.54,163.43 115.71,162.74 Q 112.23,161.89 110.79,161.76 Q 108.08,161.50 105.46,162.56 A 1.80,1.51 -46.0 0 1 104.52,162.66 Q 98.84,161.52 93.00,158.00 Q 75.38,147.40 65.40,130.35 Q 64.31,128.49 64.28,126.25 Q 64.17,119.28 64.28,112.31 Q 64.41,103.91 56.55,103.98 Q 55.19,103.99 53.83,104.89 Q 52.57,105.72 51.29,106.50 Q 55.10,100.99 61.25,104.50 Q 63.27,105.66 64.27,107.38 Q 65.00,108.66 65.00,111.27 Q 65.00,117.63 65.00,124.00 Q 65.00,128.23 66.22,130.29 Q 72.78,141.36 82.48,149.79 Q 91.37,157.52 103.10,161.80 A 3.30,3.29 -47.8 0 0 105.67,161.67 Q 107.61,160.71 110.00,160.98 Q 116.13,161.68 121.47,164.21 A 2.83,2.80 -81.0 0 1 123.06,166.42 Q 123.67,171.42 120.12,174.67 A 1.37,1.32 21.8 0 1 119.26,175.02 Q 112.89,175.21 106.95,172.78 Q 105.43,172.15 104.50,170.79 Z"/>
<path fill="#270360" d="M 104.50,170.79 Q 103.52,169.27 103.75,167.00 Q 103.82,166.27 103.00,165.79 Q 103.41,165.41 102.81,165.19 Q 97.10,163.10 89.50,158.96 Q 73.26,148.65 63.39,132.15 A 1.13,0.73 73.4 0 0 62.82,131.66 Q 62.25,131.48 62.50,132.21 Q 55.73,136.48 51.59,131.25 Q 50.19,129.48 50.01,126.46 Q 49.48,117.73 50.00,109.00 Q 50.03,108.50 51.29,106.50 Q 52.57,105.72 53.83,104.89 Q 55.19,103.99 56.55,103.98 Q 64.41,103.91 64.28,112.31 Q 64.17,119.28 64.28,126.25 Q 64.31,128.49 65.40,130.35 Q 75.38,147.40 93.00,158.00 Q 98.84,161.52 104.52,162.66 A 1.80,1.51 -46.0 0 0 105.46,162.56 Q 108.08,161.50 110.79,161.76 Q 112.23,161.89 115.71,162.74 Q 118.54,163.43 120.44,164.56 Q 122.78,165.97 122.37,168.66 Q 121.47,174.71 117.39,174.70 Q 116.28,174.70 111.09,173.33 Q 107.67,172.43 104.50,170.79 Z"/>
<path fill="#96b3f8" d="M 142.85,128.66 A 11.69 11.69 0.0 0 1 131.16,140.35 A 11.69 11.69 0.0 0 1 119.47,128.66 A 11.69 11.69 0.0 0 1 131.16,116.97 A 11.69 11.69 0.0 0 1 142.85,128.66 ZM 139.36,128.63 A 8.15 8.15 0.0 0 0 131.21,120.48 A 8.15 8.15 0.0 0 0 123.06,128.63 A 8.15 8.15 0.0 0 0 131.21,136.78 A 8.15 8.15 0.0 0 0 139.36,128.63 Z"/>
<path fill="#96b3f8" d="M 201.45,128.93 A 11.71 11.71 0.0 0 1 189.74,140.64 A 11.71 11.71 0.0 0 1 178.03,128.93 A 11.71 11.71 0.0 0 1 189.74,117.22 A 11.71 11.71 0.0 0 1 201.45,128.93 ZM 197.88,128.99 A 8.20 8.20 0.0 0 0 189.68,120.79 A 8.20 8.20 0.0 0 0 181.48,128.99 A 8.20 8.20 0.0 0 0 189.68,137.19 A 8.20 8.20 0.0 0 0 197.88,128.99 Z"/>
<path fill="#270360" d="M 139.36,128.63 A 8.15 8.15 0.0 0 1 131.21,136.78 A 8.15 8.15 0.0 0 1 123.06,128.63 A 8.15 8.15 0.0 0 1 131.21,120.48 A 8.15 8.15 0.0 0 1 139.36,128.63 ZM 136.35,127.95 A 3.95 3.95 0.0 0 0 132.40,124.00 A 3.95 3.95 0.0 0 0 128.45,127.95 A 3.95 3.95 0.0 0 0 132.40,131.90 A 3.95 3.95 0.0 0 0 136.35,127.95 Z"/>
<path fill="#270360" d="M 197.88,128.99 A 8.20 8.20 0.0 0 1 189.68,137.19 A 8.20 8.20 0.0 0 1 181.48,128.99 A 8.20 8.20 0.0 0 1 189.68,120.79 A 8.20 8.20 0.0 0 1 197.88,128.99 ZM 195.49,128.28 A 3.95 3.95 0.0 0 0 191.54,124.33 A 3.95 3.95 0.0 0 0 187.59,128.28 A 3.95 3.95 0.0 0 0 191.54,132.23 A 3.95 3.95 0.0 0 0 195.49,128.28 Z"/>
<circle fill="#ffffff" cx="132.40" cy="127.95" r="3.95"/>
<circle fill="#ffffff" cx="191.54" cy="128.28" r="3.95"/>
<path fill="#80749c" fill-opacity="0.984" d="M 89.50,158.96 Q 89.27,159.02 89.21,159.25 Q 79.19,153.76 71.69,144.56 Q 66.25,137.89 62.50,132.21 Q 62.25,131.48 62.82,131.66 A 1.13,0.73 73.4 0 1 63.39,132.15 Q 73.26,148.65 89.50,158.96 Z"/>
<path fill="#ffffff" d="M 156.93,140.20 Q 163.31,140.25 169.69,140.31 A 0.47,0.45 2.2 0 1 170.16,140.80 Q 169.84,145.75 165.94,148.19 Q 160.74,151.43 155.71,148.67 Q 153.42,147.41 152.20,145.36 Q 150.99,143.31 150.63,140.63 A 0.50,0.49 84.0 0 1 151.08,140.07 Q 152.84,139.93 154.20,140.02 Q 156.87,140.20 156.93,140.20 Z"/>
<path fill="#655f85" fill-opacity="0.980" d="M 204.50,154.79 Q 199.25,158.54 192.75,158.79 Q 192.51,158.83 192.34,158.77 Q 191.83,158.60 192.41,158.50 Q 198.69,157.44 204.50,154.79 Z"/>
<path fill="#655f85" fill-opacity="0.980" d="M 89.50,158.96 Q 97.10,163.10 102.81,165.19 Q 103.41,165.41 103.00,165.79 Q 95.64,163.50 89.21,159.25 Q 89.27,159.02 89.50,158.96 Z"/>
<path fill="#afcaec" d="M 92.15,261.18 Q 95.74,256.91 99.51,253.00 Q 101.16,251.28 100.77,253.64 Q 96.71,277.96 108.65,298.44 Q 109.36,299.65 108.01,299.25 Q 90.85,294.14 75.37,286.46 A 1.02,1.01 27.4 0 1 74.92,285.07 Q 79.40,276.80 85.14,269.63 Q 86.96,267.36 92.15,261.18 Z"/>
</svg>
